<svg width="32" height="32" viewBox="0 0 32 32" xmlns="http://www.w3.org/2000/svg" role="img" aria-label="macOS">
<path fill="#d0d7de" d="M21.7 17.3c0-3.1 2.5-4.6 2.6-4.7-1.4-2.1-3.6-2.4-4.4-2.4-1.9-.2-3.6 1.1-4.6 1.1-1 0-2.5-1.1-4.1-1-2.1 0-4.1 1.2-5.2 3.1-2.2 3.8-.6 9.5 1.6 12.6 1.1 1.5 2.3 3.2 4 3.1 1.6-.1 2.2-1 4.1-1 1.9 0 2.4 1 4.1 1 1.7 0 2.8-1.6 3.8-3.1 1.2-1.8 1.7-3.5 1.8-3.6-.1 0-3.7-1.4-3.7-5.1zM18.7 8.2c.9-1.1 1.5-2.6 1.3-4.1-1.3.1-2.8.9-3.7 1.9-.8.9-1.5 2.5-1.3 3.9 1.4.1 2.8-.7 3.7-1.7z"/>
</svg>
