<svg width="32" height="32" viewBox="0 0 32 32" xmlns="http://www.w3.org/2000/svg" role="img" aria-label="Rust">
<path fill="#d0d7de" d="M16 2l2.2 3 3.6-.9.7 3.7 3.5 1.2-1 3.6 2.7 2.4-2.7 2.4 1 3.6-3.5 1.2-.7 3.7-3.6-.9L16 30l-2.2-3-3.6.9-.7-3.7L6 23l1-3.6-2.7-2.4L7 14.6 6 11l3.5-1.2.7-3.7 3.6.9L16 2zm0 5.2a8.8 8.8 0 1 0 0 17.6 8.8 8.8 0 0 0 0-17.6z"/>
<text x="16" y="20.8" text-anchor="middle" font-family="-apple-system,BlinkMacSystemFont,Segoe UI,Noto Sans,Helvetica,Arial,sans-serif" font-size="13" font-weight="900" fill="#d0d7de">R</text>
</svg>
